<?xml version="1.0" encoding="iso-8859-1"?>
<!-- Generator: Adobe Illustrator 19.0.0, SVG Export Plug-In . SVG Version: 6.00 Build 0)  -->
<svg version="1.1" id="Layer_1" xmlns="http://www.w3.org/2000/svg" xmlns:xlink="http://www.w3.org/1999/xlink" x="0px" y="0px"
	 viewBox="0 0 512 512" style="enable-background:new 0 0 512 512;" xml:space="preserve">
<circle style="fill:#78B9EB;" cx="256" cy="256" r="256"/>
<path style="fill:#3C5D76;" d="M256,0c141.385,0,256,114.615,256,256S397.385,512,256,512"/>
<path style="fill:#FFFFFF;" d="M256,332.8c-51.22,0-100.754-10.673-135.9-29.277C92.987,289.167,76.8,271.402,76.8,256
	s16.187-33.167,43.3-47.521C155.246,189.873,204.78,179.2,256,179.2l12.8-12.8L256,140.8c-120.179,0-217.6,51.576-217.6,115.2
	c0,63.622,97.421,115.2,217.6,115.2l12.8-12.8L256,332.8z"/>
<path style="fill:#FFDA44;" d="M256,76.8c15.402,0,33.167,16.187,47.521,43.3C322.129,155.246,332.8,204.78,332.8,256
	c0,51.219-10.671,100.753-29.279,135.9c-14.354,27.113-32.119,43.3-47.521,43.3s-33.167-16.187-47.521-43.3
	C189.871,356.753,179.2,307.219,179.2,256c0-51.22,10.671-100.754,29.279-135.9C222.833,92.987,240.598,76.8,256,76.8 M256,38.4
	c-63.624,0-115.2,97.421-115.2,217.6c0,120.177,51.576,217.6,115.2,217.6S371.2,376.177,371.2,256
	C371.2,135.821,319.624,38.4,256,38.4L256,38.4z"/>
<path style="fill:#78B9EB;" d="M256,140.8v38.4c51.219,0,100.753,10.673,135.899,29.279C419.013,222.833,435.2,240.598,435.2,256
	s-16.187,33.167-43.301,47.523C356.753,322.127,307.219,332.8,256,332.8v38.4c120.177,0,217.6-51.578,217.6-115.2
	C473.6,192.376,376.177,140.8,256,140.8z"/>
<path style="fill:#FF9811;" d="M256,38.4v38.4c15.402,0,33.167,16.187,47.521,43.3C322.129,155.246,332.8,204.78,332.8,256
	c0,51.219-10.671,100.753-29.279,135.9c-14.354,27.113-32.119,43.3-47.521,43.3v38.4c63.624,0,115.2-97.423,115.2-217.6
	C371.2,135.821,319.624,38.4,256,38.4z"/>
<path style="fill:#78B9EB;" d="M434.865,259.84c-2.408,14.458-18.079,30.508-42.966,43.683C356.753,322.127,307.219,332.8,256,332.8
	v38.4c117.747,0,213.638-49.517,217.467-111.36H434.865z"/>
<g>
</g>
<g>
</g>
<g>
</g>
<g>
</g>
<g>
</g>
<g>
</g>
<g>
</g>
<g>
</g>
<g>
</g>
<g>
</g>
<g>
</g>
<g>
</g>
<g>
</g>
<g>
</g>
<g>
</g>
</svg>
